<svg xmlns="http://www.w3.org/2000/svg" viewBox="0 0 64 64">
  <defs>
    <radialGradient id="tile" cx="50%" cy="42%" r="70%">
      <stop offset="0%" stop-color="#16181E"/>
      <stop offset="100%" stop-color="#070809"/>
    </radialGradient>
    <linearGradient id="orb" x1="0" y1="0" x2="1" y2="0">
      <stop offset="0%" stop-color="#D9A441" stop-opacity="0.12"/>
      <stop offset="55%" stop-color="#D9A441" stop-opacity="0.55"/>
      <stop offset="100%" stop-color="#FFE7B0" stop-opacity="0.95"/>
    </linearGradient>
    <linearGradient id="ink" x1="0" y1="0" x2="0" y2="1">
      <stop offset="0%" stop-color="#FFEFC6"/>
      <stop offset="100%" stop-color="#E7B24A"/>
    </linearGradient>
    <radialGradient id="pglow" cx="50%" cy="50%" r="50%">
      <stop offset="0%" stop-color="#FFE7B0" stop-opacity="0.9"/>
      <stop offset="100%" stop-color="#FFE7B0" stop-opacity="0"/>
    </radialGradient>
  </defs>
  <rect width="64" height="64" rx="14" fill="url(#tile)"/>
  <g>
    <circle cx="11" cy="12" r="1.1" fill="#EDEDEA" opacity="0.75"/>
    <circle cx="54" cy="13" r="0.9" fill="#9FB8FF" opacity="0.8"/>
    <circle cx="9"  cy="40" r="0.8" fill="#EDEDEA" opacity="0.6"/>
    <circle cx="55" cy="50" r="1.0" fill="#EDEDEA" opacity="0.7"/>
    <circle cx="50" cy="6"  r="0.7" fill="#EDEDEA" opacity="0.55"/>
  </g>
  <g transform="rotate(-24 32 32)">
    <ellipse cx="32" cy="32" rx="27" ry="12.2" fill="none" stroke="url(#orb)" stroke-width="1.7"/>
    <circle cx="59" cy="32" r="6" fill="url(#pglow)"/>
    <circle cx="59" cy="32" r="2.5" fill="#FFF1CF"/>
  </g>
  <g fill="url(#ink)" transform="translate(32 32) scale(0.03165 -0.03165) translate(-698.48 -328.50)"><path d="M325.673583984375 0H35V40.1260986328125Q76.6632080078125 40.1260986328125 96.88427734375 46.6260986328125Q117.1053466796875 53.1260986328125 123.1053466796875 73.23663330078125Q129.1053466796875 93.34716796875 129.1053466796875 134.1260986328125V532.094970703125Q129.1053466796875 569.094970703125 120.49481201171875 586.594970703125Q111.88427734375 604.094970703125 91.27374267578125 609.3160400390625Q70.6632080078125 614.537109375 35 614.537109375V657H320.1260986328125Q395.789306640625 657 466.01556396484375 643.2262573242188Q536.2418212890625 629.4525146484375 591.6943359375 594.5682373046875Q647.1468505859375 559.6839599609375 679.54150390625 497.6839599609375Q711.9361572265625 435.6839599609375 711.9361572265625 338.2314453125Q711.9361572265625 242.88427734375 682.54150390625 177.93695068359375Q653.1468505859375 112.9896240234375 600.1943359375 73.65802001953125Q547.2418212890625 34.326416015625 476.95770263671875 17.1632080078125Q406.673583984375 0 325.673583984375 0ZM313.599365234375 52.7996826171875Q392.136474609375 52.7996826171875 448.5682373046875 75.35235595703125Q505 97.905029296875 535.326416015625 157.17877197265625Q565.65283203125 216.4525146484375 565.65283203125 327.673583984375Q565.65283203125 461.326416015625 502.38946533203125 532.4317626953125Q439.1260986328125 603.537109375 305.9361572265625 603.537109375Q296.27294921875 603.537109375 287.1097412109375 603.537109375Q277.946533203125 603.537109375 264.7254638671875 602.3160400390625V54.2418212890625Q277.388671875 53.2418212890625 289.94134521484375 53.020751953125Q302.4940185546875 52.7996826171875 313.599365234375 52.7996826171875Z"/><path d="M379.0518798828125 0H35.2210693359375V40.1260986328125Q75.442138671875 40.1260986328125 95.55267333984375 46.73663330078125Q115.6632080078125 53.34716796875 122.38427734375 73.17877197265625Q129.1053466796875 93.0103759765625 129.1053466796875 132.4525146484375V528.9896240234375Q129.1053466796875 567.4317626953125 121.99481201171875 586.15283203125Q114.88427734375 604.8739013671875 94.77374267578125 610.4844360351562Q74.6632080078125 616.094970703125 35.2210693359375 616.094970703125V657H355.0726318359375Q446.409423828125 657 499.6304931640625 638.5Q552.8515625 620 575.293701171875 586.2789306640625Q597.73583984375 552.557861328125 597.73583984375 506.4525146484375Q597.73583984375 439.4525146484375 556.9569091796875 404.78411865234375Q516.177978515625 370.11572265625 452.6201171875 353.11572265625V347.557861328125Q495.6201171875 341.3367919921875 535.8990478515625 323.8946533203125Q576.177978515625 306.4525146484375 602.5674438476562 271.56304931640625Q628.9569091796875 236.673583984375 628.9569091796875 177Q628.9569091796875 89.6632080078125 563.8990478515625 44.83160400390625Q498.8411865234375 0 379.0518798828125 0ZM325.04150390625 47.1260986328125Q356.2625732421875 47.1260986328125 383.5889892578125 50.73663330078125Q410.9154052734375 54.34716796875 431.57342529296875 67.0682373046875Q452.2314453125 79.789306640625 463.94732666015625 106.12091064453125Q475.6632080078125 132.4525146484375 475.6632080078125 177.3367919921875Q475.6632080078125 237.4525146484375 454.22625732421875 267.3946533203125Q432.789306640625 297.3367919921875 399.07861328125 307.5Q365.367919921875 317.6632080078125 326.1572265625 317.6632080078125H265.50439453125V50.1260986328125Q280.388671875 49.1260986328125 294.4940185546875 48.1260986328125Q308.599365234375 47.1260986328125 325.04150390625 47.1260986328125ZM265.50439453125 602.537109375V368.2314453125H318.7047119140625Q396.462890625 368.2314453125 423.84197998046875 395.8367919921875Q451.2210693359375 423.442138671875 451.2210693359375 489.1053466796875Q451.2210693359375 548.1053466796875 422.67877197265625 576.8212280273438Q394.136474609375 605.537109375 315.3782958984375 605.537109375Q303.715087890625 605.537109375 291.72027587890625 605.037109375Q279.7254638671875 604.537109375 265.50439453125 602.537109375Z" transform="translate(733 0)"/></g>
</svg>
